<svg xmlns="http://www.w3.org/2000/svg" width="24" height="24" viewBox="0 0 24 24" fill="none" stroke="#ff1744" stroke-width="2" stroke-linecap="round" stroke-linejoin="round">
    <path d="M15 22a1 1 0 0 0 1-1v-1a2 2 0 0 0 1.56-3.25 8 8 0 1 0-11.12 0A2 2 0 0 0 8 20v1a1 1 0 0 0 1 1z" />
    <path d="m12.5 17-.5-1-.5 1h1z" fill="#ff1744" />
    <line x1="10.5" y1="20" x2="10.5" y2="22" />
    <line x1="13.5" y1="20" x2="13.5" y2="22" />
    <line x1="7.2" y1="10.2" x2="10.8" y2="13.8" />
    <line x1="10.8" y1="10.2" x2="7.2" y2="13.8" />
    <line x1="13.2" y1="10.2" x2="16.8" y2="13.8" />
    <line x1="16.8" y1="10.2" x2="13.2" y2="13.8" />
</svg>
